<?xml version="1.0" encoding="UTF-8"?>
<svg version="1.1" viewBox="0 0 631.08523 591.39025" xmlns="http://www.w3.org/2000/svg">
 <g transform="translate(-45.83 -85.622)">
  <g stroke="#000">
   <path transform="matrix(.83179 .55509 -.55509 .83179 62.633 -155.4)" d="m712.14 123.01c80.447 87.82 68.654 227.44-18.357 306.22-96.64 87.5-249.49 74.28-335.37-21.51-94.56-105.47-79.91-271.54 24.66-364.53 114.28-101.63 293.6-85.547 393.69 27.811 108.69 123.1 91.18 315.66-30.97 422.84-131.91 115.76-337.72 96.816-452-34.117-1.8649-2.1366-3.7023-4.2972-5.5116-6.481" fill="none" stroke-width="10"/>
   <ellipse cx="285.77" cy="374.67" rx="37.942" ry="40.174" d="m 323.71199,374.67001 c 0,22.18749 -16.98721,40.174 -37.942,40.174 -20.95479,0 -37.942,-17.98651 -37.942,-40.174 0,-22.18748 16.98721,-40.174 37.942,-40.174 20.95479,0 37.942,17.98652 37.942,40.174 z" stroke-linecap="round" stroke-width="15.561"/>
   <ellipse cx="474.41" cy="369.56" rx="37.942" ry="40.174" d="m 512.35201,369.56 c 0,22.18748 -16.98722,40.174 -37.94201,40.174 -20.95479,0 -37.942,-17.98652 -37.942,-40.174 0,-22.18749 16.98721,-40.174 37.942,-40.174 20.95479,0 37.94201,17.98651 37.94201,40.174 z" stroke-linecap="round" stroke-width="15.561"/>
  </g>
 </g>
</svg>
